<svg width="130" height="40" viewBox="0 0 130 40" fill="none" xmlns="http://www.w3.org/2000/svg">
<path d="M55.2272 9.54688C49.0772 9.54688 44.0908 14.2287 44.0908 20.0014C44.0908 25.7741 49.0772 30.456 55.2272 30.456C61.3772 30.456 66.3635 25.7741 66.3635 20.0014C66.3635 14.2287 61.3772 9.54688 55.2272 9.54688ZM55.2272 25.456C52.2135 25.456 49.7726 23.0151 49.7726 20.0014C49.7726 16.9878 52.2135 14.5469 55.2272 14.5469C58.2408 14.5469 60.6817 16.9878 60.6817 20.0014C60.6817 23.0151 58.2408 25.456 55.2272 25.456Z" fill="#333333"/>
<path d="M95.9091 10H90V30H95.9091V10Z" fill="#333333"/>
<path d="M79.5455 30H73.6364L65 10H71.3636L79.5455 30Z" fill="#333333"/>
<path d="M74.0908 30H79.9999L88.6363 10H82.2726L74.0908 30Z" fill="#333333"/>
<path d="M104.545 20V10H98.6362V25.9091L104.545 20Z" fill="#333333"/>
<path d="M121.818 10H114.545L104.545 20L114.545 30H121.818L111.818 20L121.818 10Z" fill="#333333"/>
<path d="M34.0907 9.54688C31.0998 9.54688 28.4862 10.9332 27.0635 13.0014C25.6725 10.9332 23.1362 9.54688 20.2271 9.54688C17.7589 9.54688 15.5498 10.5423 14.0907 12.1105L13.1816 10.0014H8.18164V30.0014H14.0907V18.1832C14.0907 16.1741 15.9225 14.5469 18.1816 14.5469C20.4407 14.5469 22.2725 16.1741 22.2725 18.1832V30.0014H28.1816V18.1832C28.1816 16.1741 30.0135 14.5469 32.2725 14.5469C34.5316 14.5469 36.3635 16.1741 36.3635 18.1832V30.0014H42.2725V16.5923C42.2725 12.7014 38.6089 9.54688 34.0907 9.54688Z" fill="#333333"/>
<path d="M92.9545 7.27326C94.8373 7.27326 96.3636 5.74696 96.3636 3.86417C96.3636 1.98138 94.8373 0.455078 92.9545 0.455078C91.0717 0.455078 89.5454 1.98138 89.5454 3.86417C89.5454 5.74696 91.0717 7.27326 92.9545 7.27326Z" fill="#FFAF40"/>
<path d="M101.591 7.27326C103.474 7.27326 105 5.74696 105 3.86417C105 1.98138 103.474 0.455078 101.591 0.455078C99.7079 0.455078 98.1816 1.98138 98.1816 3.86417C98.1816 5.74696 99.7079 7.27326 101.591 7.27326Z" fill="#00E6AC"/>
</svg>
